<?xml version="1.0" encoding="UTF-8"?>
<svg id="Layer_2" data-name="Layer 2" xmlns="http://www.w3.org/2000/svg" viewBox="0 0 111.04 111.04">
  <defs>
    <style>
      .cls-1 {
        fill: #010101;
        stroke-width: 0px;
      }
    </style>
  </defs>
  <g id="Layer_1-2" data-name="Layer 1">
    <path class="cls-1" d="m65.8,0h-20.56C20.26,0,0,20.26,0,45.24v20.55c0,24.99,20.26,45.24,45.24,45.24h20.56c24.99,0,45.24-20.26,45.24-45.24v-20.55C111.04,20.26,90.79,0,65.8,0Zm8.66,31.92h-5.58c-5.5,0-7.21,3.41-7.21,6.91v8.31h12.28l-1.96,12.8h-10.32v30.94h-13.84v-30.94h-11.24v-12.8h11.24v-9.76c0-11.1,6.61-17.23,16.72-17.23,4.84,0,9.91.86,9.91.86v10.9Z"/>
  </g>
</svg>